<svg xmlns="http://www.w3.org/2000/svg" viewBox="0 0 1759.44 1119.59">
  <defs><style>.cls-1{fill:#c01400;}.cls-2{fill:#fff;}</style></defs>
  <title>topic_fly_brain</title>
  <g id="Rectángulo_4" data-name="Rectángulo 4">
    <path class="cls-1" d="M1454.36,538S1218.8,326.4,947.26,326.4c-270,0-502.5,211.6-502.5,211.6S69.84,730.34,69.84,1148.51c0,393.44,374.92,283.28,374.92,283.28s232.49-32.44,502.5-32.44c271.54,0,507.1,32.44,507.1,32.44s374.92,110.16,374.92-283.28C1829.28,730.34,1454.36,538,1454.36,538Z" transform="translate(-69.84 -326.4)"/>
  </g>
  <g id="Forma_1_copia_2" data-name="Forma 1 copia 2"><path class="cls-2" d="M1610.64,955.37c-32.64,7.84-78.65,57.78-120.89,61.7s-60.43-27.42-100.74-41.14c-97.91-43.11-184.21,40.16-201.49,20.57-73-99.94,132.4-95,161.19-102.84s-3.86-80.31,40.3-82.27,26.85,109.69,40.29,123.41,35.49,18.61,60.45,20.57,64.29-28.39,60.45-61.7-29.73-92.05-60.45-123.41S1389,708.56,1389,708.56s-75.79-75.42-100.74-61.7-46.06,49.95-40.3,61.7,90.21,89.12,40.3,102.84c-23,9.8-80.6-41.13-80.6-41.13S1105,779.09,1106.92,749.7s57.55-23.5,80.59-41.14,55.66-107.73,40.3-123.4-120.89,0-120.89,0-97.85-61.72-120.9-20.57S972.61,664.47,945.73,688c2.43,14.07-11.81,67.91,12.7,104,33.53,49.4,104.49,83.54,67.89,101.65C963,925,885.29,833,885.29,770.26c-9.6-9.8-66.21-21.54-60.45-41.14s61.39-30.35,80.59-61.7S919.84,546,885.29,544s-85.36,3.92-141,0-96.9,70.51-100.74,82.27,120.93,92.05,40.3,123.41-94-107.73-120.9-123.41-100.74,41.14-100.74,41.14v61.7s130.49,35.24,120.89,82.27-82.5,41.14-120.89,41.14S381.56,832,381.56,832s51.82-64.63,40.3-82.27-102.64,5.84-141,82.27-62.37,72.45-60.45,123.41,155.43,20.55,161.19,61.7c9.6,72.51-177.5,21.5-181.34,123.41-5.76,52.91,36.44,123.41,80.6,123.41H381.56s-49.92-121.45,0-123.41S442,1181.62,442,1181.62s-11.52,89.12,0,102.84,80.59,0,80.59,0,24.94-45.05,40.3-41.13,55.64,41.13,80.59,41.13,63.32-45.05,80.59-41.13,17.26,51.9,40.3,61.7,83.46,13.72,100.75,0-14.41-66.59,20.14-82.27S962,1303.06,1046.48,1305s66.16-68.55,141-82.27c32.65-6,67.38,45.37,120.18,62.53,68.29,22.2,153.25,14.88,161.91,40.3,15.36,45.07,116.08-2.93,141-20.57s57.58-116.54,40.3-144-141-2.93-141-20.57,36.4-57.78,161.19-61.7C1747.88,1074.86,1643.28,947.53,1610.64,955.37ZM643.5,1140.48c-16.76,17.1-71.42-39-100.74-41.13S442,1102.29,442,1078.78s39.5-2.65,60.45-41.14,57.27-146.11,141-144C654,923.6,565,987.14,562.91,1017.07S660.26,1123.38,643.5,1140.48ZM925.58,1161c-27.22-2.14-80.59-61.7-80.59-61.7s-61,2.14-100.74,0,30.84-53.15,120.9-61.7c16.75,0-11.27-129.82,20.14-123.4s40.3,164.54,40.3,164.54,40.8,33.91,80.59,61.7C1029.21,1149,952.81,1163.19,925.58,1161Zm584.32,123.41c-20.77,13-138.82-101.21-161.19-102.84s-47,23.83-80.59,20.57-111.92-105.47-100.74-123.4,117.07,87.8,141,61.7,34.88-83.9,60.45-82.27,11.53,81.64,40.29,102.84S1530.67,1271.41,1509.9,1284.45Z" transform="translate(-69.84 -326.4)"/>
  </g>
</svg>